<svg version="1.1" xmlns="http://www.w3.org/2000/svg" xmlns:xlink="http://www.w3.org/1999/xlink" width="75" height="75.19864" viewBox="0,0,75,75.19864"><g transform="translate(-202.1875,-136.5)"><g data-paper-data="{&quot;isPaintingLayer&quot;:true}" fill="#3500ff" fill-rule="nonzero" stroke="#000000" stroke-width="1" stroke-linecap="butt" stroke-linejoin="miter" stroke-miterlimit="10" stroke-dasharray="" stroke-dashoffset="0" style="mix-blend-mode: normal"><path d="M202.6875,174c0,-20.43454 16.56546,-37 37,-37c20.43453,0 37,16.56546 37,37c0,4.38685 -0.76345,8.59539 -2.16473,12.5c-8.28628,0 -16.57256,0 -24.85884,0c-11.83333,0 -23.66667,0 -35.5,0c-2.72407,0 -6.14381,0 -9.3117,0c-1.40128,-3.90461 -2.16473,-8.11315 -2.16473,-12.5z"/><path d="M212.24052,210.19864l-7.5,-23.5h13l-4.5,23.5z"/><path d="M227.74052,210.19864l-7.5,-23.5h13l-4.5,23.5z"/><path d="M243.24052,211.19864l-7.5,-23.5h13l-4.5,23.5z"/><path d="M256.24052,210.69864l-7.5,-23.5h13l-4.5,23.5z"/><path d="M269.74051,210.69864l-7.5,-23.5h13l-4.5,23.5z"/><path d="M252.74052,162.94864c0,-2.89949 2.35051,-5.25 5.25,-5.25c2.89949,0 5.25,2.35051 5.25,5.25c0,2.89949 -2.35051,5.25 -5.25,5.25c-2.89949,0 -5.25,-2.35051 -5.25,-5.25z"/></g></g></svg>