<svg version="1.1" xmlns="http://www.w3.org/2000/svg" xmlns:xlink="http://www.w3.org/1999/xlink" width="75" height="75.19864" viewBox="0,0,75,75.19864"><g transform="translate(-202.5,-142.40068)"><g data-paper-data="{&quot;isPaintingLayer&quot;:true}" fill="#ff0000" fill-rule="nonzero" stroke="#000000" stroke-width="1" stroke-linecap="butt" stroke-linejoin="miter" stroke-miterlimit="10" stroke-dasharray="" stroke-dashoffset="0" style="mix-blend-mode: normal"><path d="M203,179.90068c0,-20.43454 16.56546,-37 37,-37c20.43453,0 37,16.56546 37,37c0,4.38685 -0.76345,8.59539 -2.16473,12.5c-8.28628,0 -16.57256,0 -24.85884,0c-11.83334,0 -23.66666,0 -35.5,0c-2.72407,0 -6.14381,0 -9.3117,0c-1.40128,-3.90461 -2.16473,-8.11315 -2.16473,-12.5z"/><path d="M212.55302,216.09932l-7.5,-23.5h13l-4.5,23.5z"/><path d="M228.05302,216.09932l-7.5,-23.5h13l-4.5,23.5z"/><path d="M243.55302,217.09932l-7.5,-23.5h13l-4.5,23.5z"/><path d="M256.55302,216.59932l-7.5,-23.5h13l-4.5,23.5z"/><path d="M270.05302,216.59932l-7.5,-23.5h13l-4.5,23.5z"/><path d="M253.05302,168.84932c0,-2.8995 2.35051,-5.25 5.25,-5.25c2.8995,0 5.25,2.3505 5.25,5.25c0,2.8995 -2.3505,5.25 -5.25,5.25c-2.8995,0 -5.25,-2.3505 -5.25,-5.25z"/></g></g></svg>