<svg version="1.1" xmlns="http://www.w3.org/2000/svg" xmlns:xlink="http://www.w3.org/1999/xlink" width="36.61224" height="34" viewBox="0,0,36.61224,34"><g transform="translate(-221.69388,-163)"><g data-paper-data="{&quot;isPaintingLayer&quot;:true}" fill="#ffffff" fill-rule="nonzero" stroke-linecap="butt" stroke-linejoin="miter" stroke-miterlimit="10" stroke-dasharray="" stroke-dashoffset="0" style="mix-blend-mode: normal"><path d="M257.30612,180c0,8.83656 -7.74821,16 -17.30612,16c-9.55791,0 -17.30612,-7.16344 -17.30612,-16c0,-8.83656 7.74821,-16 17.30612,-16c9.55791,0 17.30612,7.16344 17.30612,16z" stroke="#ffffff" stroke-width="2"/><path d="M240.08333,178.5c0,3.15385 -6.0153,2.7696 -8.91237,2.32056c-0.08362,0.00845 -0.16845,0.01277 -0.2543,0.01277c-0.44455,0 -0.86201,-0.11603 -1.22372,-0.31947c-0.76172,-0.4284 -1.27628,-1.24437 -1.27628,-2.18053c0,-1.38071 1.11929,-2.5 2.5,-2.5c0.24231,0 0.47658,0.03447 0.69815,0.09879c3.60546,-1.17203 8.46852,0.08959 8.46852,2.56788z" stroke="none" stroke-width="0.5"/></g></g></svg>