<svg version="1.1" xmlns="http://www.w3.org/2000/svg" xmlns:xlink="http://www.w3.org/1999/xlink" width="482.48048" height="357.85585" viewBox="0,0,482.48048,357.85585"><g transform="translate(7.997,-0.32132)"><g data-paper-data="{&quot;isPaintingLayer&quot;:true}" fill-rule="nonzero" stroke-linecap="butt" stroke-linejoin="miter" stroke-miterlimit="10" stroke-dasharray="" stroke-dashoffset="0" style="mix-blend-mode: normal"><path d="M-6.99699,357.17718v-355.85585h480.48048v355.85585zM95.10511,76.9069c-10,0 -10,10 -10,10c0,9.00901 0,18.01802 0,27.02703c0,2.94688 -0.15162,8.93309 1.18326,10.72458c2.59949,3.48868 6.52342,5.92707 10.42341,7.85535c1.8498,0.9146 4.14047,0.04351 6.18051,0.35415c2.0401,0.31065 3.96077,1.22669 6.00601,1.5015c5.21196,0.70031 10.95401,0.07493 16.23685,0.07493c3.08024,0 7.45673,-0.81545 10.41019,-0.12912c3.00465,0.69823 6.02493,1.5869 9.10933,1.63062c21.51068,0.30491 43.05217,0 64.56457,0c9.50951,0 19.01902,0 28.52853,0c4.84342,0 10.36516,0.60086 15.11534,-0.12912c1.56436,-0.24041 2.95249,-1.19124 4.5045,-1.5015c1.20983,-0.24185 2.58369,0.38973 3.69871,-0.13839c3.30802,-1.56682 7.39646,-2.79834 9.21198,-5.97668c2.12485,-3.71986 1.21917,-8.48965 1.49349,-12.76482c0.53913,-8.4021 0,-17.08238 0,-25.52552c0,-1.001 0,-5.005 0,-6.00601v0c0,-3.47297 -1.20614,-5.73978 -2.78066,-7.21934c-1.47956,-1.57452 -3.74638,-2.78066 -7.21934,-2.78066c-15.99729,0 -32.05989,-0.43621 -48.04804,0c-1.76844,0.04825 -3.57028,-0.10111 -5.30053,0.26751c-1.09459,0.23319 -1.94109,1.14815 -3.003,1.5015c-1.17597,0.39131 -2.46911,-0.26751 -3.70848,-0.26751c-5.5055,0 -11.01101,0 -16.51651,0c-24.02402,0 -48.04804,0 -72.07207,0c-3.00301,0 -9.00901,0 -12.01202,0c0,0 -2.83646,0 -5.48807,1.51066c-0.16959,-0.00607 -0.34222,-0.00916 -0.51793,-0.00916z" fill="#9966ff" stroke="#000000" stroke-width="2"/><path d="" fill="#9966ff" stroke="#000000" stroke-width="2"/><text transform="translate(102.61262,114.68469) scale(0.95549,0.95549)" font-size="40" xml:space="preserve" fill="#000000" fill-rule="nonzero" stroke="none" stroke-width="1" stroke-linecap="butt" stroke-linejoin="miter" stroke-miterlimit="10" stroke-dasharray="" stroke-dashoffset="0" font-family="Sans Serif" font-weight="normal" text-anchor="start" style="mix-blend-mode: normal"><tspan x="0" dy="0">You lose!</tspan></text></g></g></svg>