<svg version="1.1" xmlns="http://www.w3.org/2000/svg" xmlns:xlink="http://www.w3.org/1999/xlink" width="499.494" height="387.70733" viewBox="0,0,499.494,387.70733"><g transform="translate(-2.66091,28.41349)"><g data-paper-data="{&quot;isPaintingLayer&quot;:true}" fill-rule="nonzero" stroke="#000000" stroke-linejoin="miter" stroke-miterlimit="10" stroke-dasharray="" stroke-dashoffset="0" style="mix-blend-mode: normal"><path d="" fill="#ff0000" stroke-width="0.5" stroke-linecap="butt"/><path d="M17.93861,342.05947v-367.86787h6.00601c0,0 0,77.25387 0,160.0752c0,85.14293 0,176.1698 0,195.1952c0,7.06748 0,12.59748 0,12.59748z" fill="#ff0000" stroke-width="0.5" stroke-linecap="butt"/><path d="M483.40641,351.7164v-379.87988h12.01201v379.87988z" fill="#ff0000" stroke-width="0.5" stroke-linecap="butt"/><path d="M2.91091,5.69546v-13.51351h498.4985v13.51351z" fill="#ff0000" stroke-width="0.5" stroke-linecap="butt"/><path d="M3.40641,359.04385v-13.51351h498.4985v13.51351z" fill="#ff0000" stroke-width="0.5" stroke-linecap="butt"/><path d="M321.05957,174.31649v32.54353h-42v-7v-67h-80v74h-54l-3,-123.50862h171" fill="none" stroke-width="0.5" stroke-linecap="round"/><path d="M313.25006,86.35137v-7h7.80951v39.03491" fill="none" stroke-width="1" stroke-linecap="round"/><path d="M82.05957,178.06648v84.28492h102v38.62398h-104.41961" fill="none" stroke-width="1" stroke-linecap="round"/><path d="M82.05957,124.38628v-95.03491h3.53929h300.65121v6.20614" fill="none" stroke-width="1" stroke-linecap="round"/><path d="M481.25007,143.35137h-22v-26h-73v-19.02855" fill="none" stroke-width="1" stroke-linecap="round"/><path d="M21.25006,97.35139h59" fill="none" stroke-width="1" stroke-linecap="round"/><path d="M79.25006,209.35141h-55" fill="none" stroke-width="1" stroke-linecap="round"/><path d="M370.63995,261.35137h-93.38989v-56" fill="none" stroke-width="1" stroke-linecap="round"/><path d="M404.06868,200.97535h82.18138" fill="none" stroke-width="1" stroke-linecap="round"/><path d="M327.67312,200.97535h-7.42306" fill="none" stroke-width="1" stroke-linecap="round"/><path d="M199.63996,132.00001v73" fill="none" stroke-width="1" stroke-linecap="round"/><path d="M437.63996,262.54382v61h-154v19" fill="none" stroke-width="1" stroke-linecap="round"/><path d="M141.45245,82.44018h168" fill="none" stroke-width="1" stroke-linecap="round"/></g></g></svg>